# Blender v2.81 (sub 16) OBJ File: 'RoundedHexagon.blend'
# www.blender.org
mtllib RoundedHexagon.mtl
o RounderHexagon_RounderHexagonMesh
v -0.216506 0.012500 0.375000
v -0.209006 0.000000 0.362010
v -0.433013 0.012500 0.000000
v -0.418013 -0.000000 0.000000
v -0.216506 0.012500 -0.375000
v -0.209006 -0.000000 -0.362010
v 0.216506 0.012500 -0.375000
v 0.209006 -0.000000 -0.362010
v 0.433013 0.012500 -0.000000
v 0.418013 -0.000000 -0.000000
v 0.216506 0.012500 0.375000
v 0.209006 0.000000 0.362010
v 0.010825 0.012500 -0.493750
v 0.010450 -0.000000 -0.476646
v -0.010450 -0.000000 -0.476646
v -0.010825 0.012500 -0.493750
v 0.407562 -0.000000 -0.247373
v 0.422187 0.012500 -0.256250
v 0.433013 0.012500 -0.237500
v 0.418013 -0.000000 -0.229273
v 0.418013 0.000000 0.229273
v 0.433013 0.012500 0.237500
v 0.422187 0.012500 0.256250
v 0.407562 0.000000 0.247373
v 0.010450 0.000000 0.476646
v 0.010825 0.012500 0.493750
v -0.010825 0.012500 0.493750
v -0.010450 0.000000 0.476646
v -0.407562 0.000000 0.247373
v -0.422187 0.012500 0.256250
v -0.433013 0.012500 0.237500
v -0.418013 0.000000 0.229273
v -0.418013 -0.000000 -0.229273
v -0.433013 0.012500 -0.237500
v -0.422187 0.012500 -0.256250
v -0.407562 -0.000000 -0.247373
v -0.216506 0.050000 0.375000
v -0.216506 0.087500 0.375000
v -0.209006 0.100000 0.362010
v -0.433013 0.050000 0.000000
v -0.433013 0.087500 -0.000000
v -0.418013 0.100000 -0.000000
v -0.216506 0.050000 -0.375000
v -0.216506 0.087500 -0.375000
v -0.209006 0.100000 -0.362010
v 0.216506 0.050000 -0.375000
v 0.216506 0.087500 -0.375000
v 0.209006 0.100000 -0.362010
v 0.433013 0.050000 -0.000000
v 0.433013 0.087500 -0.000000
v 0.418013 0.100000 -0.000000
v 0.216506 0.050000 0.375000
v 0.216506 0.087500 0.375000
v 0.209006 0.100000 0.362010
v 0.010825 0.050000 -0.493750
v 0.010825 0.087500 -0.493750
v 0.010450 0.100000 -0.476646
v -0.010450 0.100000 -0.476646
v -0.010825 0.050000 -0.493750
v -0.010825 0.087500 -0.493750
v 0.407562 0.100000 -0.247373
v 0.422187 0.050000 -0.256250
v 0.422187 0.087500 -0.256250
v 0.433013 0.050000 -0.237500
v 0.433013 0.087500 -0.237500
v 0.418013 0.100000 -0.229273
v 0.418013 0.100000 0.229273
v 0.433013 0.050000 0.237500
v 0.433013 0.087500 0.237500
v 0.422187 0.050000 0.256250
v 0.422187 0.087500 0.256250
v 0.407562 0.100000 0.247373
v 0.010450 0.100000 0.476646
v 0.010825 0.050000 0.493750
v 0.010825 0.087500 0.493750
v -0.010825 0.050000 0.493750
v -0.010825 0.087500 0.493750
v -0.010450 0.100000 0.476646
v -0.407562 0.100000 0.247373
v -0.422187 0.050000 0.256250
v -0.422187 0.087500 0.256250
v -0.433013 0.050000 0.237500
v -0.433013 0.087500 0.237500
v -0.418013 0.100000 0.229273
v -0.418013 0.100000 -0.229273
v -0.433013 0.050000 -0.237500
v -0.433013 0.087500 -0.237500
v -0.422187 0.050000 -0.256250
v -0.422187 0.087500 -0.256250
v -0.407562 0.100000 -0.247373
v -0.000000 0.100000 -0.000000
v -0.000000 -0.000000 -0.000000
vt 0.979248 0.500000
vt 1.000000 0.500000
vt 1.000000 0.621795
vt 0.979248 0.621795
vt 0.020752 0.877128
vt 0.000000 0.877128
vt 0.000000 0.736492
vt 0.020752 0.736492
vt 0.979248 0.256410
vt 1.000000 0.256410
vt 1.000000 0.378205
vt 0.979248 0.378205
vt 0.979248 0.000000
vt 1.000000 0.000000
vt 1.000000 0.121795
vt 0.979248 0.121795
vt 0.062256 0.595855
vt 0.083008 0.595855
vt 0.083008 0.736492
vt 0.062256 0.736492
vt 0.979248 0.756410
vt 1.000000 0.756410
vt 1.000000 0.878205
vt 0.979248 0.878205
vt 1.000000 0.243590
vt 0.979248 0.243590
vt 0.083008 0.877128
vt 0.062256 0.877128
vt 1.000000 1.000000
vt 0.979248 1.000000
vt 1.000000 0.743590
vt 0.979248 0.743590
vt 0.000000 0.595855
vt 0.020752 0.595855
vt 1.000000 0.500000
vt 0.979248 0.500000
vt 0.952505 0.140637
vt 0.944412 0.145893
vt 0.834533 0.078011
vt 0.838684 0.070318
vt 0.724655 0.010128
vt 0.724862 0.000000
vt 0.712881 0.000000
vt 0.713089 0.010128
vt 0.603210 0.078011
vt 0.599060 0.070318
vt 0.493332 0.145893
vt 0.485239 0.140637
vt 0.479248 0.151740
vt 0.487549 0.156611
vt 0.487549 0.292376
vt 0.479248 0.292376
vt 0.487549 0.428141
vt 0.479248 0.433013
vt 0.062256 0.584752
vt 0.083008 0.584752
vt 0.000000 0.584752
vt 0.020752 0.584752
vt 0.020752 0.888231
vt 0.000000 0.888231
vt 0.083008 0.888231
vt 0.062256 0.888231
vt 0.493332 0.438859
vt 0.485239 0.444116
vt 0.712881 0.584752
vt 0.713089 0.574624
vt 0.724655 0.574624
vt 0.724863 0.584752
vt 0.952505 0.444116
vt 0.944412 0.438859
vt 0.950195 0.428141
vt 0.958496 0.433013
vt 0.958496 0.151739
vt 0.950195 0.156611
vt 0.958496 0.292376
vt 0.950195 0.292376
vt 0.838684 0.514434
vt 0.834534 0.506742
vt 0.599060 0.514434
vt 0.603210 0.506742
vt 0.958496 0.621795
vt 0.958496 0.500000
vt 0.041504 0.736492
vt 0.041504 0.877128
vt 0.958496 0.378205
vt 0.958496 0.256410
vt 0.958496 0.121795
vt 0.958496 0.000000
vt 0.041504 0.736492
vt 0.041504 0.595855
vt 0.958496 0.878205
vt 0.958496 0.756410
vt 0.958496 0.243590
vt 0.041504 0.877128
vt 0.958496 1.000000
vt 0.958496 0.743590
vt 0.041504 0.595855
vt 0.958496 0.500000
vt 0.479248 0.151740
vt 0.479248 0.292376
vt 0.470947 0.292376
vt 0.470947 0.156611
vt 0.470947 0.428141
vt 0.479248 0.433013
vt 0.473257 0.444116
vt 0.359436 0.514434
vt 0.355286 0.506742
vt 0.465164 0.438859
vt 0.245407 0.574624
vt 0.245615 0.584752
vt 0.233633 0.584752
vt 0.119812 0.514434
vt 0.123962 0.506742
vt 0.233841 0.574624
vt 0.014084 0.438859
vt 0.005991 0.444116
vt 0.041504 0.584752
vt 0.041504 0.584752
vt 0.041504 0.888231
vt 0.041504 0.888231
vt 0.000000 0.433013
vt 0.008301 0.428141
vt 0.000000 0.151740
vt 0.005991 0.140637
vt 0.014084 0.145893
vt 0.008301 0.156611
vt 0.233633 0.000000
vt 0.245615 0.000000
vt 0.245407 0.010128
vt 0.233841 0.010128
vt 0.465164 0.145893
vt 0.473257 0.140637
vt 0.355286 0.078011
vt 0.359436 0.070318
vt 0.123962 0.078011
vt 0.119812 0.070318
vt 0.008301 0.292376
vt 0.000000 0.292376
vt 0.008301 0.292376
vt 0.008301 0.428141
vt 0.470947 0.156611
vt 0.014084 0.438859
vt 0.355286 0.078011
vt 0.008301 0.156611
vt 0.014084 0.145893
vt 0.355286 0.506742
vt 0.465164 0.438859
vt 0.123962 0.506742
vt 0.233841 0.010128
vt 0.465164 0.145893
vt 0.123962 0.078011
vt 0.470947 0.428141
vt 0.233841 0.574624
vt 0.470947 0.292376
vt 0.245407 0.574624
vt 0.245407 0.010128
vt 0.834534 0.506742
vt 0.713089 0.010128
vt 0.487549 0.156611
vt 0.493332 0.145893
vt 0.834533 0.078011
vt 0.950195 0.156611
vt 0.713089 0.574624
vt 0.603210 0.078011
vt 0.493332 0.438859
vt 0.950195 0.292376
vt 0.724655 0.574624
vt 0.487549 0.292376
vt 0.950195 0.428141
vt 0.724655 0.010128
vt 0.603210 0.506742
vt 0.944412 0.438859
vt 0.944412 0.145893
vt 0.487549 0.428141
vn -0.5000 0.0000 0.8660
vn -1.0000 -0.0000 0.0000
vn -0.5000 0.0000 -0.8660
vn 0.5000 0.0000 -0.8660
vn 1.0000 0.0000 0.0000
vn 0.5000 0.0000 0.8660
vn -0.6402 -0.7682 0.0000
vn -0.3201 -0.7682 0.5544
vn 0.3201 -0.7682 0.5544
vn 0.8660 0.0000 0.5000
vn 0.0000 0.0000 1.0000
vn -0.8660 0.0000 0.5000
vn -0.8660 0.0000 -0.5000
vn 0.0000 0.0000 -1.0000
vn 0.8660 0.0000 -0.5000
vn 0.5110 -0.8074 0.2950
vn 0.5110 -0.8074 -0.2950
vn 0.0000 -0.8074 -0.5900
vn -0.5110 -0.8074 -0.2950
vn -0.5110 -0.8074 0.2950
vn 0.0000 -0.8074 0.5900
vn -0.3201 -0.7682 -0.5544
vn 0.3201 -0.7682 -0.5544
vn 0.6402 -0.7682 -0.0000
vn -0.6402 0.7682 -0.0000
vn -0.3201 0.7682 0.5544
vn 0.3201 0.7682 0.5544
vn 0.5110 0.8074 0.2950
vn 0.5110 0.8074 -0.2950
vn 0.0000 0.8074 -0.5900
vn -0.5110 0.8074 -0.2950
vn -0.5110 0.8074 0.2950
vn 0.0000 0.8074 0.5900
vn -0.3201 0.7682 -0.5544
vn 0.3201 0.7682 -0.5544
vn 0.6402 0.7682 -0.0000
vn 0.0000 1.0000 -0.0000
vn 0.0000 -1.0000 0.0000
usemtl None
s off
f 80/1/1 30/2/1 1/3/1 37/4/1
f 86/5/2 34/6/2 3/7/2 40/8/2
f 59/9/3 16/10/3 5/11/3 43/12/3
f 62/13/4 18/14/4 7/15/4 46/16/4
f 68/17/5 22/18/5 9/19/5 49/20/5
f 74/21/6 26/22/6 11/23/6 52/24/6
f 46/16/4 7/15/4 13/25/4 55/26/4
f 49/20/5 9/19/5 19/27/5 64/28/5
f 52/24/6 11/23/6 23/29/6 70/30/6
f 37/4/1 1/3/1 27/31/1 76/32/1
f 40/8/2 3/7/2 31/33/2 82/34/2
f 43/12/3 5/11/3 35/35/3 88/36/3
f 34/37/7 33/38/7 4/39/7 3/40/7
f 32/41/7 31/42/7 3/40/7 4/39/7
f 30/43/8 29/44/8 2/45/8 1/46/8
f 28/47/8 27/48/8 1/46/8 2/45/8
f 26/49/9 25/50/9 12/51/9 11/52/9
f 24/53/9 23/54/9 11/52/9 12/51/9
f 70/55/10 23/56/10 22/18/10 68/17/10
f 76/32/11 27/31/11 26/22/11 74/21/11
f 82/34/12 31/33/12 30/57/12 80/58/12
f 88/59/13 35/60/13 34/6/13 86/5/13
f 59/9/14 55/26/14 13/25/14 16/10/14
f 64/28/15 19/27/15 18/61/15 62/62/15
f 23/54/16 24/53/16 21/63/16 22/64/16
f 19/65/17 20/66/17 17/67/17 18/68/17
f 13/69/18 14/70/18 15/71/18 16/72/18
f 34/37/19 35/73/19 36/74/19 33/38/19
f 31/42/20 32/41/20 29/44/20 30/43/20
f 27/48/21 28/47/21 25/50/21 26/49/21
f 36/74/22 35/73/22 5/75/22 6/76/22
f 16/72/22 15/71/22 6/76/22 5/75/22
f 14/70/23 13/69/23 7/77/23 8/78/23
f 18/68/23 17/67/23 8/78/23 7/77/23
f 20/66/24 19/65/24 9/79/24 10/80/24
f 22/64/24 21/63/24 10/80/24 9/79/24
f 80/1/1 37/4/1 38/81/1 81/82/1
f 86/5/2 40/8/2 41/83/2 87/84/2
f 59/9/3 43/12/3 44/85/3 60/86/3
f 62/13/4 46/16/4 47/87/4 63/88/4
f 68/17/5 49/20/5 50/89/5 69/90/5
f 74/21/6 52/24/6 53/91/6 75/92/6
f 46/16/4 55/26/4 56/93/4 47/87/4
f 49/20/5 64/28/5 65/94/5 50/89/5
f 52/24/6 70/30/6 71/95/6 53/91/6
f 37/4/1 76/32/1 77/96/1 38/81/1
f 40/8/2 82/34/2 83/97/2 41/83/2
f 43/12/3 88/36/3 89/98/3 44/85/3
f 87/99/25 41/100/25 42/101/25 85/102/25
f 84/103/25 42/101/25 41/100/25 83/104/25
f 81/105/26 38/106/26 39/107/26 79/108/26
f 78/109/26 39/107/26 38/106/26 77/110/26
f 75/111/27 53/112/27 54/113/27 73/114/27
f 72/115/27 54/113/27 53/112/27 71/116/27
f 70/55/10 68/17/10 69/90/10 71/117/10
f 76/32/11 74/21/11 75/92/11 77/96/11
f 82/34/12 80/58/12 81/118/12 83/97/12
f 88/59/13 86/5/13 87/84/13 89/119/13
f 59/9/14 60/86/14 56/93/14 55/26/14
f 64/28/15 62/62/15 63/120/15 65/94/15
f 71/116/28 69/121/28 67/122/28 72/115/28
f 65/123/29 63/124/29 61/125/29 66/126/29
f 56/127/30 60/128/30 58/129/30 57/130/30
f 87/99/31 85/102/31 90/131/31 89/132/31
f 83/104/32 81/105/32 79/108/32 84/103/32
f 77/110/33 75/111/33 73/114/33 78/109/33
f 90/131/34 45/133/34 44/134/34 89/132/34
f 60/128/34 44/134/34 45/133/34 58/129/34
f 57/130/35 48/135/35 47/136/35 56/127/35
f 63/124/35 47/136/35 48/135/35 61/125/35
f 66/126/36 51/137/36 50/138/36 65/123/36
f 69/121/36 50/138/36 51/137/36 67/122/36
f 51/137/37 66/126/37 91/139/37
f 67/122/37 51/137/37 91/140/37
f 85/102/37 42/101/37 91/141/37
f 72/115/37 67/122/37 91/142/37
f 45/133/37 90/131/37 91/143/37
f 66/126/37 61/125/37 91/144/37
f 61/125/37 48/135/37 91/145/37
f 39/107/37 78/109/37 91/146/37
f 79/108/37 39/107/37 91/147/37
f 54/113/37 72/115/37 91/148/37
f 57/130/37 58/129/37 91/149/37
f 90/131/37 85/102/37 91/150/37
f 48/135/37 57/130/37 91/151/37
f 84/103/37 79/108/37 91/152/37
f 73/114/37 54/113/37 91/153/37
f 42/101/37 84/103/37 91/154/37
f 78/109/37 73/114/37 91/155/37
f 58/129/37 45/133/37 91/156/37
f 8/78/38 17/67/38 92/157/38
f 29/44/38 32/41/38 92/158/38
f 25/50/38 28/47/38 92/159/38
f 28/47/38 2/45/38 92/160/38
f 4/39/38 33/38/38 92/161/38
f 36/74/38 6/76/38 92/162/38
f 20/66/38 10/80/38 92/163/38
f 2/45/38 29/44/38 92/164/38
f 21/63/38 24/53/38 92/165/38
f 6/76/38 15/71/38 92/166/38
f 17/67/38 20/66/38 92/167/38
f 12/51/38 25/50/38 92/168/38
f 15/71/38 14/70/38 92/169/38
f 32/41/38 4/39/38 92/170/38
f 10/80/38 21/63/38 92/171/38
f 14/70/38 8/78/38 92/172/38
f 33/38/38 36/74/38 92/173/38
f 24/53/38 12/51/38 92/174/38
